<svg xmlns="http://www.w3.org/2000/svg" width="58.876" height="50" viewBox="0 0 58.876 50"><defs><style>      .cls-1 {        fill: #bd32d3;        fill-rule: evenodd;      }    </style></defs><path id="enjoy-this-app-icon" class="cls-1" d="M424.987,2438.44l-3.517-3.35a0.862,0.862,0,1,1,1.187-1.25l2.772,2.64,5.009-7.57a0.862,0.862,0,0,1,1.438.95s-5.573,8.42-5.576,8.43A0.881,0.881,0,0,1,424.987,2438.44Zm0.578,12.79c-12.8-5.98-15.138-18.99-15.542-22.85a2.035,2.035,0,0,1,1.22-2.09,7.293,7.293,0,0,0,4.419-6.17,1.66,1.66,0,0,1,1.659-1.55l17.166-.1h0.01a1.675,1.675,0,0,1,1.667,1.52,7.3,7.3,0,0,0,4.484,6.13,2.028,2.028,0,0,1,1.251,2.07c-0.359,3.87-2.545,16.91-15.273,23.04A1.393,1.393,0,0,1,425.565,2451.23Zm-8.187-30.94a9.016,9.016,0,0,1-5.457,7.59,0.307,0.307,0,0,0-.182.32c0.377,3.61,2.527,15.79,14.347,21.37,11.753-5.72,13.76-17.92,14.095-21.54a0.317,0.317,0,0,0-.194-0.32,9.022,9.022,0,0,1-5.537-7.52Zm8.015,27.4a22.459,22.459,0,0,1-9.112-9.18,28.027,28.027,0,0,1-2.945-8.73,1.427,1.427,0,0,1,.673-1.46,9.435,9.435,0,0,0,4.228-5.56,1.429,1.429,0,0,1,1.372-1.05l12.627-.08a1.44,1.44,0,0,1,1.384,1.04,9.456,9.456,0,0,0,4.293,5.51,1.43,1.43,0,0,1,.69,1.45,28.14,28.14,0,0,1-2.843,8.77,22.5,22.5,0,0,1-9,9.28A1.4,1.4,0,0,1,425.393,2447.69Zm-10.322-18a26.292,26.292,0,0,0,2.727,8,20.431,20.431,0,0,0,8.267,8.4,20.484,20.484,0,0,0,8.169-8.49,26.418,26.418,0,0,0,2.633-8.03,11.15,11.15,0,0,1-4.84-6.21l-12.19.07A11.108,11.108,0,0,1,415.071,2429.69Zm30.918,10.07h-4.074a0.86,0.86,0,1,1,0-1.72h4.074a7.735,7.735,0,0,0,0-15.47c-0.985.01-1.071-.64-1.08-2.01a17.532,17.532,0,0,0-17.466-17.48,17.726,17.726,0,0,0-16.226,11,1.163,1.163,0,0,1-1.228.53,11.715,11.715,0,0,0,0,23.43,0.86,0.86,0,1,1,0,1.72,13.44,13.44,0,0,1-.143-26.88c4.136-9.95,13.684-11.53,17.6-11.53a19.224,19.224,0,0,1,19.191,19.21c0,0.1,0,.2,0,0.31A9.456,9.456,0,0,1,445.989,2439.76Z" transform="translate(-396.562 -2401.34)"></path></svg>