<svg xmlns="http://www.w3.org/2000/svg" width="57.094" height="50" viewBox="0 0 57.094 50"><defs><style>      .cls-1 {        fill: #bd32d3;        fill-rule: evenodd;      }    </style></defs><path id="download-it-icon" class="cls-1" d="M416.208,2172.63a13.294,13.294,0,0,1,17.262,4.64,1.332,1.332,0,0,0,1.525.55,8.371,8.371,0,0,1,10.845,7.06,1.336,1.336,0,0,0,.934,1.13,9.24,9.24,0,0,1,6.486,7.76,0.841,0.841,0,0,0,.83.74,0.334,0.334,0,0,0,.1-0.01,0.836,0.836,0,0,0,.734-0.93,10.905,10.905,0,0,0-7.444-9.09,10.059,10.059,0,0,0-12.743-8.33,14.919,14.919,0,0,0-12.459-6.66,14.732,14.732,0,0,0-6.834,1.65,0.837,0.837,0,0,0,.765,1.49h0Zm37.864,23.8a0.835,0.835,0,0,0-1.013.61,9.277,9.277,0,0,1-3.283,5.05,9.434,9.434,0,0,1-5.817,2.01h-9.006a0.835,0.835,0,1,0,0,1.67h9.006a11.174,11.174,0,0,0,6.851-2.36,10.972,10.972,0,0,0,3.875-5.97A0.833,0.833,0,0,0,454.072,2196.43Zm-35.246,8.51a0.835,0.835,0,0,0-.837-0.84h-7.533a10.925,10.925,0,0,1-7.79-3.26,10.637,10.637,0,0,1-3.14-7.6,10.807,10.807,0,0,1,8.69-10.5,1.34,1.34,0,0,0,1.044-1.03,13.233,13.233,0,0,1,4.156-7.17,0.834,0.834,0,1,0-1.116-1.24,14.848,14.848,0,0,0-4.631,7.84,12.492,12.492,0,0,0-9.818,12.09,12.3,12.3,0,0,0,3.627,8.79,12.578,12.578,0,0,0,8.978,3.75h7.533A0.833,0.833,0,0,0,418.826,2204.94Zm18.089,4.28h-4.474v-11.47a1.805,1.805,0,0,0-1.8-1.8H422.3a1.805,1.805,0,0,0-1.8,1.8v4.69a0.838,0.838,0,0,0,1.675,0v-4.69a0.13,0.13,0,0,1,.127-0.13h8.336a0.13,0.13,0,0,1,.127.13v12.31a0.832,0.832,0,0,0,.837.83h4.227l-9.2,6.89a0.251,0.251,0,0,1-.326,0l-9.2-6.89h4.227a0.833,0.833,0,0,0,.837-0.83V2206a0.838,0.838,0,0,0-1.675,0v3.22h-4.474a1.311,1.311,0,0,0-.788,2.36l10.064,7.54a1.944,1.944,0,0,0,2.336,0l10.064-7.54a1.311,1.311,0,0,0-.788-2.36h0Zm-15.907-17.45a0.841,0.841,0,0,0,.838.84h9.25a0.841,0.841,0,0,0,.837-0.84,0.832,0.832,0,0,0-.837-0.83h-9.25a0.833,0.833,0,0,0-.838.83h0Zm1.6-5.01a0.841,0.841,0,0,0,.838.84H429.5a0.84,0.84,0,0,0,0-1.68h-6.054a0.841,0.841,0,0,0-.838.84h0Zm5.827-4.18a0.835,0.835,0,1,0,0-1.67h-3.924a0.835,0.835,0,1,0,0,1.67h3.924Z" transform="translate(-397.844 -2169.5)"></path></svg>