<svg xmlns="http://www.w3.org/2000/svg" width="50" height="50" viewBox="0 0 50 50"><defs><style>      .cls-1 {        fill: #bd32d3;        fill-rule: evenodd;      }    </style></defs><path id="make-a-profile-icon" class="cls-1" d="M449.507,1937.99H419.5a2.5,2.5,0,0,0-2.5,2.5v18.34H406.16a2.5,2.5,0,0,0-2.5,2.5V1978h-0.833a0.839,0.839,0,0,0-.834.84,4.18,4.18,0,0,0,4.168,4.17h26.675a4.165,4.165,0,0,0,4.168-4.16v-0.01a0.839,0.839,0,0,0-.833-0.84h-0.834v-9.16h9.17a0.839,0.839,0,0,0,.833-0.84,0.831,0.831,0,0,0-.833-0.83h-4.373l-1.191-4.17h10.565a2.5,2.5,0,0,0,2.5-2.5v-20.01A2.5,2.5,0,0,0,449.507,1937.99Zm-44.181,23.34a0.831,0.831,0,0,1,.834-0.83h26.675a0.831,0.831,0,0,1,.834.83V1978H422a0.839,0.839,0,0,0-.833.84H417.83A0.839,0.839,0,0,0,417,1978H405.326v-16.67Zm29.283,19.27a2.517,2.517,0,0,1-1.774.74H406.16a2.5,2.5,0,0,1-2.358-1.67h12.361a0.839,0.839,0,0,0,.834.84h5a0.839,0.839,0,0,0,.834-0.84h12.361A2.484,2.484,0,0,1,434.609,1980.6Zm0.727-13.43V1963h1.872l1.191,4.17h-3.063Zm15-6.67a0.831,0.831,0,0,1-.834.83H435.336a2.5,2.5,0,0,0-2.5-2.5H418.664v-18.34a0.831,0.831,0,0,1,.834-0.83h30.009a0.831,0.831,0,0,1,.834.83v20.01Zm-2.5,9.17h-6.669a2.5,2.5,0,0,0-2.5,2.5v13.34a2.5,2.5,0,0,0,2.5,2.5h6.669a2.5,2.5,0,0,0,2.5-2.5v-13.34A2.5,2.5,0,0,0,447.84,1969.67Zm0.834,15.84a0.831,0.831,0,0,1-.834.83h-6.669a0.831,0.831,0,0,1-.833-0.83v-13.34a0.831,0.831,0,0,1,.833-0.83h6.669a0.831,0.831,0,0,1,.834.83v13.34Z" transform="translate(-402 -1938)"></path></svg>